<?xml version="1.0" encoding="us-ascii" standalone="no"?><svg xmlns="http://www.w3.org/2000/svg" xmlns:xlink="http://www.w3.org/1999/xlink" contentStyleType="text/css" height="416px" preserveAspectRatio="none" style="width:413px;height:416px;background:#FFFFFF;" version="1.1" viewBox="0 0 413 416" width="413px" zoomAndPan="magnify"><defs/><g><rect fill="#FFFFFF" height="235.4844" style="stroke:#181818;stroke-width:1.0;" width="10" x="184" y="91.4883"/><line style="stroke:#181818;stroke-width:0.5;stroke-dasharray:5.0,5.0;" x1="28" x2="28" y1="81.4883" y2="335.9727"/><line style="stroke:#181818;stroke-width:0.5;stroke-dasharray:5.0,5.0;" x1="188.5" x2="188.5" y1="81.4883" y2="335.9727"/><line style="stroke:#181818;stroke-width:0.5;stroke-dasharray:5.0,5.0;" x1="378" x2="378" y1="81.4883" y2="335.9727"/><text fill="#000000" font-family="sans-serif" font-size="14" lengthAdjust="spacing" textLength="40" x="5" y="78.5352">Client</text><ellipse cx="28" cy="13.5" fill="#E2E2F0" rx="8" ry="8" style="stroke:#181818;stroke-width:0.5;"/><path d="M28,21.5 L28,48.5 M15,29.5 L41,29.5 M28,48.5 L15,63.5 M28,48.5 L41,63.5 " fill="none" style="stroke:#181818;stroke-width:0.5;"/><text fill="#000000" font-family="sans-serif" font-size="14" lengthAdjust="spacing" textLength="40" x="5" y="348.5078">Client</text><ellipse cx="28" cy="359.9609" fill="#E2E2F0" rx="8" ry="8" style="stroke:#181818;stroke-width:0.5;"/><path d="M28,367.9609 L28,394.9609 M15,375.9609 L41,375.9609 M28,394.9609 L15,409.9609 M28,394.9609 L41,409.9609 " fill="none" style="stroke:#181818;stroke-width:0.5;"/><rect fill="#E2E2F0" height="30.4883" rx="2.5" ry="2.5" style="stroke:#181818;stroke-width:0.5;" width="91" x="143.5" y="50"/><text fill="#000000" font-family="sans-serif" font-size="14" lengthAdjust="spacing" textLength="77" x="150.5" y="70.5352">Utilities API</text><rect fill="#E2E2F0" height="30.4883" rx="2.5" ry="2.5" style="stroke:#181818;stroke-width:0.5;" width="91" x="143.5" y="334.9727"/><text fill="#000000" font-family="sans-serif" font-size="14" lengthAdjust="spacing" textLength="77" x="150.5" y="355.5078">Utilities API</text><text fill="#000000" font-family="sans-serif" font-size="14" lengthAdjust="spacing" textLength="18" x="366" y="78.5352">DB</text><path d="M360,29 C360,19 378,19 378,19 C378,19 396,19 396,29 L396,55 C396,65 378,65 378,65 C378,65 360,65 360,55 L360,29 " fill="#E2E2F0" style="stroke:#181818;stroke-width:1.5;"/><path d="M360,29 C360,39 378,39 378,39 C378,39 396,39 396,29 " fill="none" style="stroke:#181818;stroke-width:1.5;"/><text fill="#000000" font-family="sans-serif" font-size="14" lengthAdjust="spacing" textLength="18" x="366" y="348.5078">DB</text><path d="M360,361.4609 C360,351.4609 378,351.4609 378,351.4609 C378,351.4609 396,351.4609 396,361.4609 L396,387.4609 C396,397.4609 378,397.4609 378,397.4609 C378,397.4609 360,397.4609 360,387.4609 L360,361.4609 " fill="#E2E2F0" style="stroke:#181818;stroke-width:1.5;"/><path d="M360,361.4609 C360,371.4609 378,371.4609 378,371.4609 C378,371.4609 396,371.4609 396,361.4609 " fill="none" style="stroke:#181818;stroke-width:1.5;"/><rect fill="#FFFFFF" height="235.4844" style="stroke:#181818;stroke-width:1.0;" width="10" x="184" y="91.4883"/><polygon fill="#181818" points="172,108.7988,182,112.7988,172,116.7988,176,112.7988" style="stroke:#181818;stroke-width:1.0;"/><line style="stroke:#181818;stroke-width:1.0;" x1="28" x2="178" y1="112.7988" y2="112.7988"/><text fill="#000000" font-family="sans-serif" font-size="13" font-weight="bold" lengthAdjust="spacing" textLength="9" x="35" y="108.0566">1</text><text fill="#000000" font-family="sans-serif" font-size="13" lengthAdjust="spacing" textLength="100" x="48" y="108.0566">GET /evstations</text><polygon fill="#181818" points="366,138.1094,376,142.1094,366,146.1094,370,142.1094" style="stroke:#181818;stroke-width:1.0;"/><line style="stroke:#181818;stroke-width:1.0;" x1="194" x2="372" y1="142.1094" y2="142.1094"/><text fill="#000000" font-family="sans-serif" font-size="13" font-weight="bold" lengthAdjust="spacing" textLength="9" x="201" y="137.3672">2</text><text fill="#000000" font-family="sans-serif" font-size="13" lengthAdjust="spacing" textLength="120" x="214" y="137.3672">get_evstation_list()</text><polygon fill="#181818" points="205,167.4199,195,171.4199,205,175.4199,201,171.4199" style="stroke:#181818;stroke-width:1.0;"/><line style="stroke:#181818;stroke-width:1.0;" x1="199" x2="377" y1="171.4199" y2="171.4199"/><text fill="#000000" font-family="sans-serif" font-size="13" font-weight="bold" lengthAdjust="spacing" textLength="9" x="211" y="166.6777">3</text><text fill="#000000" font-family="sans-serif" font-size="13" lengthAdjust="spacing" textLength="51" x="224" y="166.6777">stations</text><polygon fill="#181818" points="39,196.7305,29,200.7305,39,204.7305,35,200.7305" style="stroke:#181818;stroke-width:1.0;"/><line style="stroke:#181818;stroke-width:1.0;" x1="33" x2="183" y1="200.7305" y2="200.7305"/><text fill="#000000" font-family="sans-serif" font-size="13" font-weight="bold" lengthAdjust="spacing" textLength="9" x="45" y="195.9883">4</text><text fill="#000000" font-family="sans-serif" font-size="13" lengthAdjust="spacing" textLength="51" x="58" y="195.9883">stations</text><polygon fill="#181818" points="172,226.041,182,230.041,172,234.041,176,230.041" style="stroke:#181818;stroke-width:1.0;"/><line style="stroke:#181818;stroke-width:1.0;" x1="28" x2="178" y1="230.041" y2="230.041"/><text fill="#000000" font-family="sans-serif" font-size="13" font-weight="bold" lengthAdjust="spacing" textLength="9" x="35" y="225.2988">1</text><text fill="#000000" font-family="sans-serif" font-size="13" lengthAdjust="spacing" textLength="119" x="48" y="225.2988">GET /evstations/id</text><polygon fill="#181818" points="366,255.3516,376,259.3516,366,263.3516,370,259.3516" style="stroke:#181818;stroke-width:1.0;"/><line style="stroke:#181818;stroke-width:1.0;" x1="194" x2="372" y1="259.3516" y2="259.3516"/><text fill="#000000" font-family="sans-serif" font-size="13" font-weight="bold" lengthAdjust="spacing" textLength="9" x="201" y="254.6094">2</text><text fill="#000000" font-family="sans-serif" font-size="13" lengthAdjust="spacing" textLength="147" x="214" y="254.6094">get_evstation_detail(id)</text><polygon fill="#181818" points="205,284.6621,195,288.6621,205,292.6621,201,288.6621" style="stroke:#181818;stroke-width:1.0;"/><line style="stroke:#181818;stroke-width:1.0;" x1="199" x2="377" y1="288.6621" y2="288.6621"/><text fill="#000000" font-family="sans-serif" font-size="13" font-weight="bold" lengthAdjust="spacing" textLength="9" x="211" y="283.9199">3</text><text fill="#000000" font-family="sans-serif" font-size="13" lengthAdjust="spacing" textLength="44" x="224" y="283.9199">station</text><polygon fill="#181818" points="39,313.9727,29,317.9727,39,321.9727,35,317.9727" style="stroke:#181818;stroke-width:1.0;"/><line style="stroke:#181818;stroke-width:1.0;" x1="33" x2="183" y1="317.9727" y2="317.9727"/><text fill="#000000" font-family="sans-serif" font-size="13" font-weight="bold" lengthAdjust="spacing" textLength="9" x="45" y="313.2305">4</text><text fill="#000000" font-family="sans-serif" font-size="13" lengthAdjust="spacing" textLength="44" x="58" y="313.2305">station</text><!--SRC=[fO-n2i9044JxVCMGAXQIFeNWUIBfBBGE6s-HXJE1t2RVBzw1I10yiDpPDyCC0D1Dnma7BpneWIJ8GieehofUL3XWVsxB-7Iar5DWM5CaUjPnc1yzJ_5CETZkrku6f-C5DIz1IMKSGiHNqCjdJOCxQ_ScEoz1gqtahVaQ_IipjVhW_gjUYyjlxrX9V2KkPq7cWE89]--></g></svg>