<?xml version="1.0" encoding="us-ascii" standalone="no"?><svg xmlns="http://www.w3.org/2000/svg" xmlns:xlink="http://www.w3.org/1999/xlink" contentStyleType="text/css" height="358px" preserveAspectRatio="none" style="width:314px;height:358px;background:#FFFFFF;" version="1.1" viewBox="0 0 314 358" width="314px" zoomAndPan="magnify"><defs/><g><line style="stroke:#181818;stroke-width:0.5;stroke-dasharray:5.0,5.0;" x1="28" x2="28" y1="81.4883" y2="277.3516"/><line style="stroke:#181818;stroke-width:0.5;stroke-dasharray:5.0,5.0;" x1="79" x2="79" y1="81.4883" y2="277.3516"/><line style="stroke:#181818;stroke-width:0.5;stroke-dasharray:5.0,5.0;" x1="262.5" x2="262.5" y1="81.4883" y2="277.3516"/><text fill="#000000" font-family="sans-serif" font-size="14" lengthAdjust="spacing" textLength="40" x="5" y="78.5352">Client</text><ellipse cx="28" cy="13.5" fill="#E2E2F0" rx="8" ry="8" style="stroke:#181818;stroke-width:0.5;"/><path d="M28,21.5 L28,48.5 M15,29.5 L41,29.5 M28,48.5 L15,63.5 M28,48.5 L41,63.5 " fill="none" style="stroke:#181818;stroke-width:0.5;"/><text fill="#000000" font-family="sans-serif" font-size="14" lengthAdjust="spacing" textLength="40" x="5" y="289.8867">Client</text><ellipse cx="28" cy="301.3398" fill="#E2E2F0" rx="8" ry="8" style="stroke:#181818;stroke-width:0.5;"/><path d="M28,309.3398 L28,336.3398 M15,317.3398 L41,317.3398 M28,336.3398 L15,351.3398 M28,336.3398 L41,351.3398 " fill="none" style="stroke:#181818;stroke-width:0.5;"/><text fill="#000000" font-family="sans-serif" font-size="14" lengthAdjust="spacing" textLength="18" x="67" y="78.5352">DB</text><path d="M61,29 C61,19 79,19 79,19 C79,19 97,19 97,29 L97,55 C97,65 79,65 79,65 C79,65 61,65 61,55 L61,29 " fill="#E2E2F0" style="stroke:#181818;stroke-width:1.5;"/><path d="M61,29 C61,39 79,39 79,39 C79,39 97,39 97,29 " fill="none" style="stroke:#181818;stroke-width:1.5;"/><text fill="#000000" font-family="sans-serif" font-size="14" lengthAdjust="spacing" textLength="18" x="67" y="289.8867">DB</text><path d="M61,302.8398 C61,292.8398 79,292.8398 79,292.8398 C79,292.8398 97,292.8398 97,302.8398 L97,328.8398 C97,338.8398 79,338.8398 79,338.8398 C79,338.8398 61,338.8398 61,328.8398 L61,302.8398 " fill="#E2E2F0" style="stroke:#181818;stroke-width:1.5;"/><path d="M61,302.8398 C61,312.8398 79,312.8398 79,312.8398 C79,312.8398 97,312.8398 97,302.8398 " fill="none" style="stroke:#181818;stroke-width:1.5;"/><rect fill="#E2E2F0" height="30.4883" rx="2.5" ry="2.5" style="stroke:#181818;stroke-width:0.5;" width="91" x="217.5" y="50"/><text fill="#000000" font-family="sans-serif" font-size="14" lengthAdjust="spacing" textLength="77" x="224.5" y="70.5352">Utilities API</text><rect fill="#E2E2F0" height="30.4883" rx="2.5" ry="2.5" style="stroke:#181818;stroke-width:0.5;" width="91" x="217.5" y="276.3516"/><text fill="#000000" font-family="sans-serif" font-size="14" lengthAdjust="spacing" textLength="77" x="224.5" y="296.8867">Utilities API</text><polygon fill="#181818" points="251,108.7988,261,112.7988,251,116.7988,255,112.7988" style="stroke:#181818;stroke-width:1.0;"/><line style="stroke:#181818;stroke-width:1.0;" x1="28" x2="257" y1="112.7988" y2="112.7988"/><text fill="#000000" font-family="sans-serif" font-size="13" font-weight="bold" lengthAdjust="spacing" textLength="9" x="35" y="108.0566">1</text><text fill="#000000" font-family="sans-serif" font-size="13" lengthAdjust="spacing" textLength="100" x="48" y="108.0566">GET /evstations</text><polygon fill="#181818" points="90,138.1094,80,142.1094,90,146.1094,86,142.1094" style="stroke:#181818;stroke-width:1.0;"/><line style="stroke:#181818;stroke-width:1.0;" x1="84" x2="262" y1="142.1094" y2="142.1094"/><text fill="#000000" font-family="sans-serif" font-size="13" font-weight="bold" lengthAdjust="spacing" textLength="9" x="96" y="137.3672">2</text><text fill="#000000" font-family="sans-serif" font-size="13" lengthAdjust="spacing" textLength="120" x="109" y="137.3672">get_evstation_list()</text><polygon fill="#181818" points="251,167.4199,261,171.4199,251,175.4199,255,171.4199" style="stroke:#181818;stroke-width:1.0;"/><line style="stroke:#181818;stroke-width:1.0;" x1="79" x2="257" y1="171.4199" y2="171.4199"/><text fill="#000000" font-family="sans-serif" font-size="13" font-weight="bold" lengthAdjust="spacing" textLength="9" x="86" y="166.6777">3</text><text fill="#000000" font-family="sans-serif" font-size="13" lengthAdjust="spacing" textLength="51" x="99" y="166.6777">stations</text><polygon fill="#181818" points="251,196.7305,261,200.7305,251,204.7305,255,200.7305" style="stroke:#181818;stroke-width:1.0;"/><line style="stroke:#181818;stroke-width:1.0;" x1="28" x2="257" y1="200.7305" y2="200.7305"/><text fill="#000000" font-family="sans-serif" font-size="13" font-weight="bold" lengthAdjust="spacing" textLength="9" x="35" y="195.9883">1</text><text fill="#000000" font-family="sans-serif" font-size="13" lengthAdjust="spacing" textLength="119" x="48" y="195.9883">GET /evstations/id</text><polygon fill="#181818" points="90,226.041,80,230.041,90,234.041,86,230.041" style="stroke:#181818;stroke-width:1.0;"/><line style="stroke:#181818;stroke-width:1.0;" x1="84" x2="262" y1="230.041" y2="230.041"/><text fill="#000000" font-family="sans-serif" font-size="13" font-weight="bold" lengthAdjust="spacing" textLength="9" x="96" y="225.2988">2</text><text fill="#000000" font-family="sans-serif" font-size="13" lengthAdjust="spacing" textLength="147" x="109" y="225.2988">get_evstation_detail(id)</text><polygon fill="#181818" points="251,255.3516,261,259.3516,251,263.3516,255,259.3516" style="stroke:#181818;stroke-width:1.0;"/><line style="stroke:#181818;stroke-width:1.0;" x1="79" x2="257" y1="259.3516" y2="259.3516"/><text fill="#000000" font-family="sans-serif" font-size="13" font-weight="bold" lengthAdjust="spacing" textLength="9" x="86" y="254.6094">3</text><text fill="#000000" font-family="sans-serif" font-size="13" lengthAdjust="spacing" textLength="44" x="99" y="254.6094">station</text><!--SRC=[ZOwn2i9040Nx_OebLImaVGh1yqJiB68TDjuY2-STv5xyVWb2415C_UOD8pVaaG_HD862G0OfojuHoOISfiUW8z5xv-sEgoii6amBxo_dgkNJiUD6dmK2owdG5p1_l6lvhkWNgezMK6_8kv_AnVNPi3wXiR2k8YZ4OctXNmcz0000]--></g></svg>