<?xml version="1.0" encoding="us-ascii" standalone="no"?><svg xmlns="http://www.w3.org/2000/svg" xmlns:xlink="http://www.w3.org/1999/xlink" contentStyleType="text/css" height="358px" preserveAspectRatio="none" style="width:392px;height:358px;background:#FFFFFF;" version="1.1" viewBox="0 0 392 358" width="392px" zoomAndPan="magnify"><defs/><g><rect fill="#FFFFFF" height="155.5527" style="stroke:#181818;stroke-width:1.0;" width="10" x="171" y="112.7988"/><rect fill="#FFFFFF" height="67.6211" style="stroke:#181818;stroke-width:1.0;" width="10" x="176" y="200.7305"/><line style="stroke:#181818;stroke-width:0.5;stroke-dasharray:5.0,5.0;" x1="28" x2="28" y1="81.4883" y2="277.3516"/><line style="stroke:#181818;stroke-width:0.5;stroke-dasharray:5.0,5.0;" x1="175.5" x2="175.5" y1="81.4883" y2="277.3516"/><line style="stroke:#181818;stroke-width:0.5;stroke-dasharray:5.0,5.0;" x1="357" x2="357" y1="81.4883" y2="277.3516"/><text fill="#000000" font-family="sans-serif" font-size="14" lengthAdjust="spacing" textLength="40" x="5" y="78.5352">Client</text><ellipse cx="28" cy="13.5" fill="#E2E2F0" rx="8" ry="8" style="stroke:#181818;stroke-width:0.5;"/><path d="M28,21.5 L28,48.5 M15,29.5 L41,29.5 M28,48.5 L15,63.5 M28,48.5 L41,63.5 " fill="none" style="stroke:#181818;stroke-width:0.5;"/><text fill="#000000" font-family="sans-serif" font-size="14" lengthAdjust="spacing" textLength="40" x="5" y="289.8867">Client</text><ellipse cx="28" cy="301.3398" fill="#E2E2F0" rx="8" ry="8" style="stroke:#181818;stroke-width:0.5;"/><path d="M28,309.3398 L28,336.3398 M15,317.3398 L41,317.3398 M28,336.3398 L15,351.3398 M28,336.3398 L41,351.3398 " fill="none" style="stroke:#181818;stroke-width:0.5;"/><rect fill="#E2E2F0" height="30.4883" rx="2.5" ry="2.5" style="stroke:#181818;stroke-width:0.5;" width="91" x="130.5" y="50"/><text fill="#000000" font-family="sans-serif" font-size="14" lengthAdjust="spacing" textLength="77" x="137.5" y="70.5352">Utilities API</text><rect fill="#E2E2F0" height="30.4883" rx="2.5" ry="2.5" style="stroke:#181818;stroke-width:0.5;" width="91" x="130.5" y="276.3516"/><text fill="#000000" font-family="sans-serif" font-size="14" lengthAdjust="spacing" textLength="77" x="137.5" y="296.8867">Utilities API</text><text fill="#000000" font-family="sans-serif" font-size="14" lengthAdjust="spacing" textLength="18" x="345" y="78.5352">DB</text><path d="M339,29 C339,19 357,19 357,19 C357,19 375,19 375,29 L375,55 C375,65 357,65 357,65 C357,65 339,65 339,55 L339,29 " fill="#E2E2F0" style="stroke:#181818;stroke-width:1.5;"/><path d="M339,29 C339,39 357,39 357,39 C357,39 375,39 375,29 " fill="none" style="stroke:#181818;stroke-width:1.5;"/><text fill="#000000" font-family="sans-serif" font-size="14" lengthAdjust="spacing" textLength="18" x="345" y="289.8867">DB</text><path d="M339,302.8398 C339,292.8398 357,292.8398 357,292.8398 C357,292.8398 375,292.8398 375,302.8398 L375,328.8398 C375,338.8398 357,338.8398 357,338.8398 C357,338.8398 339,338.8398 339,328.8398 L339,302.8398 " fill="#E2E2F0" style="stroke:#181818;stroke-width:1.5;"/><path d="M339,302.8398 C339,312.8398 357,312.8398 357,312.8398 C357,312.8398 375,312.8398 375,302.8398 " fill="none" style="stroke:#181818;stroke-width:1.5;"/><rect fill="#FFFFFF" height="155.5527" style="stroke:#181818;stroke-width:1.0;" width="10" x="171" y="112.7988"/><rect fill="#FFFFFF" height="67.6211" style="stroke:#181818;stroke-width:1.0;" width="10" x="176" y="200.7305"/><polygon fill="#181818" points="159,108.7988,169,112.7988,159,116.7988,163,112.7988" style="stroke:#181818;stroke-width:1.0;"/><line style="stroke:#181818;stroke-width:1.0;" x1="28" x2="165" y1="112.7988" y2="112.7988"/><text fill="#000000" font-family="sans-serif" font-size="13" lengthAdjust="spacing" textLength="100" x="35" y="108.0566">GET /evstations</text><polygon fill="#181818" points="345,138.1094,355,142.1094,345,146.1094,349,142.1094" style="stroke:#181818;stroke-width:1.0;"/><line style="stroke:#181818;stroke-width:1.0;" x1="181" x2="351" y1="142.1094" y2="142.1094"/><text fill="#000000" font-family="sans-serif" font-size="13" lengthAdjust="spacing" textLength="120" x="188" y="137.3672">get_evstation_list()</text><polygon fill="#181818" points="192,167.4199,182,171.4199,192,175.4199,188,171.4199" style="stroke:#181818;stroke-width:1.0;"/><line style="stroke:#181818;stroke-width:1.0;" x1="186" x2="356" y1="171.4199" y2="171.4199"/><text fill="#000000" font-family="sans-serif" font-size="13" lengthAdjust="spacing" textLength="51" x="198" y="166.6777">stations</text><polygon fill="#181818" points="164,196.7305,174,200.7305,164,204.7305,168,200.7305" style="stroke:#181818;stroke-width:1.0;"/><line style="stroke:#181818;stroke-width:1.0;" x1="28" x2="170" y1="200.7305" y2="200.7305"/><text fill="#000000" font-family="sans-serif" font-size="13" lengthAdjust="spacing" textLength="119" x="35" y="195.9883">GET /evstations/id</text><polygon fill="#181818" points="345,226.041,355,230.041,345,234.041,349,230.041" style="stroke:#181818;stroke-width:1.0;"/><line style="stroke:#181818;stroke-width:1.0;" x1="186" x2="351" y1="230.041" y2="230.041"/><text fill="#000000" font-family="sans-serif" font-size="13" lengthAdjust="spacing" textLength="147" x="193" y="225.2988">get_evstation_detail(id)</text><polygon fill="#181818" points="197,255.3516,187,259.3516,197,263.3516,193,259.3516" style="stroke:#181818;stroke-width:1.0;"/><line style="stroke:#181818;stroke-width:1.0;" x1="191" x2="356" y1="259.3516" y2="259.3516"/><text fill="#000000" font-family="sans-serif" font-size="13" lengthAdjust="spacing" textLength="44" x="203" y="254.6094">station</text><!--SRC=[ZOwn2i9044Jx_OebLImaVGh1yqJiBBGEQswHWIC1RyZtYmWAGJJL53EyUTPplEikmmUAl5BN6wqkH0RXHRUdOzNgON_MngT28yQXY5XFJ4QVJoKPxMh5DGQPTKzo3AtUdDsRrMKKrYk9uUlnvt6vNOFqGt2HL78QSetqJqmU]--></g></svg>